<?xml version="1.0" encoding="UTF-8"?>
<svg xmlns="http://www.w3.org/2000/svg" width="93" height="95" viewBox="0 0 93 95" fill="none">
  <g clip-path="url(#clip0_12_10)">
    <path d="M0 95H43.4689L23.387 53.1838C23.1324 52.4951 22.468 52.0415 21.7317 52.0525C20.9917 52.0342 20.3236 52.4896 20.0763 53.1838L0 95Z" fill="#4873B7"></path>
    <path d="M3.87356 46.747H17.4411C20.5229 46.7654 23.5753 46.1465 26.4043 44.9308C31.911 42.6095 36.2921 38.2442 38.621 32.7624C41.0606 27.0638 41.0606 20.6216 38.621 14.9249C37.4547 12.2106 35.7864 9.7387 33.7048 7.63412C29.392 3.34599 23.5347 0.953082 17.4393 0.991648H5.11368C4.77966 0.980629 4.45671 1.10367 4.21681 1.33507C3.98244 1.57197 3.85695 1.89519 3.87171 2.22758V46.7488L3.87356 46.747Z" fill="#4873B7"></path>
    <path d="M85.085 52.0508H54.8145V94.9982H85.085V52.0508Z" fill="#4873B7"></path>
    <path d="M70.2902 9.18615e-05C73.3278 -0.0201092 76.3377 0.585922 79.1298 1.77962C84.5664 4.07152 88.8921 8.37802 91.197 13.7882C92.4021 16.5649 93.0147 19.5602 92.9981 22.5849C93.0203 25.5985 92.4113 28.5827 91.2099 31.3484C88.8939 36.7421 84.5701 41.0358 79.1427 43.3277C73.4994 45.7004 67.1327 45.7004 61.4913 43.3277C56.0823 41.0211 51.7733 36.7311 49.4573 31.3484C48.2504 28.5827 47.6377 25.5985 47.6561 22.5849C47.6358 19.562 48.2448 16.5668 49.4443 13.7882C51.7474 8.39087 56.0602 4.08805 61.4783 1.77962C64.2612 0.584085 67.2619 -0.0219456 70.2902 9.18615e-05Z" fill="#4873B7"></path>
    <path d="M62.3051 15.1544C62.5358 15.1783 62.7646 15.0865 62.9141 14.9102C63.0267 14.7522 63.0876 14.5631 63.0894 14.3703V9.07024C63.0894 8.87925 63.0285 8.69377 62.9141 8.53951C62.7646 8.36321 62.5358 8.27138 62.3051 8.29526H59.5886V15.8394C59.596 15.9992 59.5204 16.1516 59.3912 16.2435C59.2546 16.3426 59.0885 16.3959 58.9188 16.394C58.4463 16.394 58.2341 16.2067 58.2341 15.8394V7.82145C58.2046 7.6121 58.2858 7.40458 58.4463 7.26684C58.6013 7.17135 58.7822 7.12176 58.9649 7.12543H62.6262C62.8421 7.12727 63.0543 7.17135 63.2536 7.25215C63.4733 7.33846 63.6836 7.44681 63.8811 7.57537C64.0859 7.72228 64.2483 7.92062 64.3535 8.14834C64.4679 8.40545 64.5233 8.68459 64.5178 8.96557V14.4584C64.5584 15.002 64.3221 15.5309 63.8903 15.867C63.7002 16.0102 63.4899 16.1241 63.2684 16.2104C63.0691 16.2875 62.8587 16.3298 62.6465 16.3316H60.6941C60.5704 16.3371 60.4541 16.2765 60.3877 16.1718C60.3065 16.0433 60.2678 15.8927 60.2751 15.7403C60.2751 15.3546 60.4449 15.1636 60.7752 15.1636L62.3088 15.1544H62.3051Z" fill="#A4DEF5"></path>
    <path d="M69.2808 8.25855L66.7341 16.0139C66.6954 16.1204 66.6289 16.2178 66.5459 16.2949C66.4647 16.3684 66.3576 16.4088 66.2488 16.4069C66.1897 16.4124 66.1288 16.4124 66.0698 16.4069C66.007 16.3977 65.9461 16.383 65.8852 16.3647C65.4423 16.2288 65.2818 15.979 65.4128 15.6283L68.0647 7.61028C68.1034 7.48908 68.1735 7.38073 68.2677 7.29625C68.3655 7.21361 68.4854 7.16219 68.6128 7.14566L68.9948 7.09424H69.5742L69.9618 7.13648C70.0836 7.16035 70.1961 7.22095 70.2829 7.31094C70.377 7.39725 70.4563 7.5001 70.5191 7.61212C70.9528 8.93988 71.392 10.2731 71.8404 11.6211C72.2888 12.9691 72.7225 14.3023 73.1562 15.6301C73.2651 15.9827 73.1045 16.2306 72.6838 16.3665L72.514 16.4088C72.4586 16.4143 72.4032 16.4143 72.3497 16.4088C72.2409 16.4088 72.1338 16.3684 72.0526 16.2967C71.9604 16.2251 71.8939 16.1259 71.8589 16.0158L69.2826 8.26039L69.2808 8.25855ZM70.1537 13.5347C70.1518 14.0269 69.7514 14.4235 69.2568 14.4272C69.0206 14.4309 68.7918 14.3354 68.6294 14.1646C68.2898 13.8138 68.2898 13.2574 68.6294 12.9066C68.7918 12.734 69.0206 12.6385 69.2568 12.644C69.7514 12.6459 70.15 13.0444 70.1537 13.5365V13.5347Z" fill="#A4DEF5"></path>
    <path d="M77.5926 15.8487C77.5926 16.2196 77.3619 16.4033 76.9042 16.4033C76.4466 16.4033 76.2196 16.2196 76.2196 15.8487V12.7744L73.6157 7.84539C73.5696 7.74622 73.5456 7.6397 73.5456 7.53135C73.5529 7.29629 73.7153 7.09611 73.9423 7.03367C74.0715 6.98225 74.2081 6.95103 74.3483 6.94369C74.5513 6.94001 74.7377 7.05755 74.8207 7.24487L76.9393 11.1969L77.4394 10.2585L77.9764 9.23008C78.161 8.88666 78.34 8.53957 78.519 8.20166L79.0283 7.26323C79.0837 7.17875 79.1538 7.10346 79.235 7.04286C79.3125 6.98593 79.4085 6.95838 79.5044 6.96389C79.6373 6.9694 79.7683 6.99878 79.892 7.05387C80.1097 7.13101 80.2592 7.33485 80.2647 7.56625C80.2703 7.61216 80.2703 7.65991 80.2647 7.70765C80.2537 7.76275 80.2352 7.81784 80.2075 7.86743L79.9436 8.37429L79.5044 9.21539C79.3107 9.57166 79.0652 10.0418 78.7644 10.6239L77.6036 12.8406L77.5944 15.8542L77.5926 15.8487Z" fill="#A4DEF5"></path>
    <path d="M74.7248 19.1064C74.9407 19.1083 75.1529 19.1524 75.3522 19.2332C75.5719 19.3176 75.7822 19.4278 75.9797 19.5564C76.1864 19.7015 76.3488 19.8998 76.4521 20.1294C76.5665 20.3865 76.6219 20.6656 76.6164 20.9466V26.4394C76.6588 26.9849 76.4226 27.5138 75.9889 27.848C75.7988 27.9912 75.5885 28.1051 75.367 28.1914C75.1677 28.2685 74.9573 28.3108 74.7451 28.3126H72.2113C71.9973 28.3089 71.7869 28.2685 71.5894 28.1914C71.3661 28.1069 71.1576 27.9912 70.9675 27.848C70.7664 27.6992 70.604 27.5046 70.4951 27.2805C70.3788 27.0197 70.3235 26.7351 70.3309 26.4504V20.9484C70.3253 20.6674 70.3825 20.3883 70.4951 20.1312C70.6003 19.9035 70.7627 19.7051 70.9675 19.5582C71.165 19.4297 71.3754 19.3213 71.595 19.235C71.7943 19.1542 72.0065 19.1101 72.2224 19.1083H74.7266L74.7248 19.1064ZM74.4369 27.1336C74.6657 27.1575 74.8927 27.0657 75.0404 26.8894C75.1548 26.7296 75.2157 26.5368 75.2157 26.3403V21.0494C75.2157 20.8584 75.1548 20.6729 75.0404 20.5187C74.8927 20.3424 74.6657 20.2506 74.4369 20.2744H72.4845C72.2538 20.2487 72.0268 20.3405 71.881 20.5187C71.7666 20.6711 71.7057 20.8584 71.7057 21.0494V26.3403C71.7038 26.5349 71.7647 26.7241 71.881 26.8802C72.0268 27.0583 72.2556 27.1501 72.4845 27.1244L74.4369 27.1336Z" fill="#A4DEF5"></path>
    <path d="M79.7351 27.8058C79.7351 28.1767 79.5081 28.3604 79.0505 28.3604C78.5928 28.3604 78.3621 28.1767 78.3621 27.8058V19.8025C78.3621 19.6335 78.4175 19.4683 78.5171 19.3324C78.6629 19.1689 78.8807 19.0881 79.0966 19.1157H83.0495C83.33 19.1157 83.4758 19.3085 83.4887 19.6923C83.5016 20.078 83.3558 20.2745 83.0495 20.2836H79.748L79.7333 27.8039L79.7351 27.8058ZM82.7118 23.5232C82.7155 23.7784 82.6121 24.0245 82.4294 24.2045C82.339 24.2908 82.2338 24.3587 82.1176 24.4065C81.7559 24.5571 81.3406 24.4781 81.0601 24.2045C80.8774 24.0245 80.7778 23.7784 80.7815 23.5232C80.7759 23.2661 80.8774 23.0181 81.0601 22.8382C81.2391 22.66 81.4809 22.559 81.7356 22.5609C81.8666 22.5609 81.9958 22.5866 82.1176 22.6362C82.2338 22.6857 82.339 22.7574 82.4294 22.8473C82.518 22.9355 82.5881 23.0383 82.6361 23.1522C82.6878 23.2697 82.7136 23.3946 82.7118 23.5232Z" fill="#A4DEF5"></path>
    <path d="M68.8896 32.2409L66.3429 40.0146C66.3041 40.123 66.2377 40.2203 66.1491 40.2956C66.0698 40.3691 65.9646 40.4095 65.8575 40.4076C65.7966 40.4132 65.7339 40.4132 65.673 40.4076L65.494 40.3654C65.0511 40.2295 64.885 39.9798 65.0216 39.629L67.6734 31.611C67.7122 31.4898 67.7823 31.3815 67.8764 31.297C67.9742 31.2143 68.0942 31.1629 68.2215 31.1464L68.6035 31.095H69.183L69.5705 31.1372C69.6923 31.1611 69.803 31.2217 69.8861 31.3117C69.982 31.398 70.0632 31.5008 70.126 31.6129C70.5597 32.9406 70.9989 34.2739 71.4473 35.6218C71.8957 36.9698 72.3294 38.3031 72.7631 39.6308C72.872 39.9834 72.7114 40.2313 72.2907 40.3672L72.1209 40.4095C72.0637 40.415 72.0083 40.415 71.9511 40.4095C71.8422 40.4076 71.737 40.3672 71.654 40.2975C71.5654 40.224 71.499 40.1267 71.4658 40.0165L68.8896 32.2428V32.2409ZM69.7588 37.5171C69.7643 37.754 69.6702 37.9817 69.4985 38.147C69.3325 38.3178 69.1036 38.4114 68.8656 38.4096C68.6294 38.4133 68.4005 38.3178 68.2381 38.147C67.893 37.798 67.893 37.2379 68.2381 36.889C68.4005 36.7164 68.6294 36.6209 68.8656 36.6264C69.3583 36.6264 69.7569 37.0231 69.7569 37.5134C69.7569 37.5134 69.7569 37.5171 69.7569 37.5189L69.7588 37.5171Z" fill="#A4DEF5"></path>
    <path d="M75.2341 39.809C75.2341 40.1799 75.0035 40.3636 74.5366 40.3636C74.0697 40.3636 73.8519 40.1799 73.8519 39.809V31.6073C73.8519 31.2364 74.0789 31.0527 74.5366 31.0527C74.9942 31.0527 75.2341 31.2364 75.2341 31.6073V39.809Z" fill="#A4DEF5"></path>
  </g>
  <defs>
    <clipPath id="clip0_12_10">
      <rect width="93" height="95" fill="white"></rect>
    </clipPath>
  </defs>
</svg>
